<svg xmlns="http://www.w3.org/2000/svg" width="224.251" height="77.704" viewBox="0 0 224.251 77.704">
  <g id="pale-30" transform="translate(0 0)" opacity="0.3">
    <g id="Group_689" data-name="Group 689">
      <g id="Group_684" data-name="Group 684">
        <path id="Path_123" data-name="Path 123" d="M30.08,31.62c-10.744,0-20.668-.935-29.71-3.366a.5.5,0,0,1,.26-.966c22.535,6.061,50.764,2.727,83.452-1.132,41.651-4.919,88.859-10.493,139.78,1.128a.5.5,0,1,1-.223.975C172.887,16.677,125.77,22.24,84.2,27.15,64.458,29.48,46.334,31.619,30.08,31.62Z"/>
      </g>
      <g id="Group_685" data-name="Group 685">
        <path id="Path_124" data-name="Path 124" d="M30.079,41.433C19.335,41.433,9.412,40.5.37,38.067A.5.5,0,0,1,.63,37.1c22.535,6.061,50.764,2.728,83.45-1.133,41.651-4.919,88.858-10.494,139.781,1.128a.5.5,0,1,1-.223.975c-50.752-11.582-97.87-6.018-139.441-1.11C64.457,39.293,46.333,41.432,30.079,41.433Z"/>
      </g>
      <g id="Group_686" data-name="Group 686">
        <path id="Path_125" data-name="Path 125" d="M30.08,51.246c-10.744,0-20.668-.935-29.71-3.366a.5.5,0,0,1,.26-.966c22.535,6.062,50.764,2.728,83.452-1.132,41.651-4.919,88.859-10.493,139.78,1.128a.5.5,0,1,1-.223.975C172.887,36.3,125.77,41.867,84.2,46.776,64.458,49.106,46.334,51.246,30.08,51.246Z"/>
      </g>
      <g id="Group_687" data-name="Group 687">
        <path id="Path_126" data-name="Path 126" d="M30.079,61.059c-10.744,0-20.667-.934-29.709-3.366a.5.5,0,0,1,.26-.966c22.535,6.062,50.764,2.728,83.45-1.133,41.651-4.918,88.858-10.494,139.781,1.128a.5.5,0,1,1-.223.975c-50.752-11.583-97.87-6.018-139.441-1.11C64.457,58.919,46.333,61.059,30.079,61.059Z"/>
      </g>
      <g id="Group_688" data-name="Group 688">
        <path id="Path_127" data-name="Path 127" d="M30.08,70.873c-10.744,0-20.668-.935-29.71-3.366a.5.5,0,1,1,.26-.966c22.535,6.062,50.764,2.728,83.452-1.132,41.651-4.919,88.859-10.494,139.78,1.128a.5.5,0,1,1-.223.975C172.887,55.93,125.77,61.493,84.2,66.4,64.458,68.733,46.334,70.872,30.08,70.873Z"/>
      </g>
    </g>
    <g id="Group_690" data-name="Group 690">
      <path id="Path_128" data-name="Path 128" d="M30.3,1.47c-1.055,3.728-1.959,7.561-2.7,11.384s-1.36,7.677-1.74,11.535a79.578,79.578,0,0,0-.389,11.545c.083,1.923.3,3.771.535,5.752l.726,5.854,1.6,11.7c.265,1.962.561,3.918.717,5.967a21.035,21.035,0,0,1,.056,3.2,11.326,11.326,0,0,1-.78,3.359,9.434,9.434,0,0,1-4.736,4.98,9.863,9.863,0,0,1-6.723.624,9.747,9.747,0,0,1-5.474-3.805,12.355,12.355,0,0,1-2.063-6.086A1,1,0,0,1,11.3,67.24l0,.021a10.754,10.754,0,0,0,1.986,4.9,7.2,7.2,0,0,0,4.187,2.6,7.415,7.415,0,0,0,4.812-.637,6.4,6.4,0,0,0,3.125-3.5,10.642,10.642,0,0,0,.327-5.106c-.217-1.88-.519-3.828-.821-5.77-.615-3.893-1.226-7.81-1.745-11.735l-.763-5.89c-.258-1.933-.465-4.013-.538-6.033A71.813,71.813,0,0,1,22.48,24,101.245,101.245,0,0,1,28.413.8a1,1,0,0,1,1.9.628Z"/>
    </g>
    <g id="Group_691" data-name="Group 691">
      <path id="Path_129" data-name="Path 129" d="M31.369.468a19.556,19.556,0,0,1,2.938,3.477A17.193,17.193,0,0,1,36.324,8.1a12.632,12.632,0,0,1,.6,4.828,11.506,11.506,0,0,1-1.415,4.759A16.088,16.088,0,0,1,32.6,21.474l-.85.786-.823.691q-.822.677-1.658,1.322c-2.225,1.727-4.5,3.3-6.694,4.88a56.828,56.828,0,0,0-6.141,4.864,15.793,15.793,0,0,0-4.051,5.707,12.9,12.9,0,0,0-.5,6.774l.166.893a6.721,6.721,0,0,0,.831,2.094A10.157,10.157,0,0,0,15,51.976a18.525,18.525,0,0,0,13.443,3.986,10.32,10.32,0,0,0,6.092-2.643,8.422,8.422,0,0,0,1.885-2.68,9.325,9.325,0,0,0,.83-3.272,7.342,7.342,0,0,0-2.5-5.906,12.367,12.367,0,0,0-6.484-3.055,9.459,9.459,0,0,0-6.915,1.272C19.468,41.03,18.5,43.3,17.908,46.11a7.092,7.092,0,0,1-.439-4.334,6.977,6.977,0,0,1,2.458-3.928A10.1,10.1,0,0,1,24.1,35.862a14.177,14.177,0,0,1,4.507-.273,15.434,15.434,0,0,1,8.353,3.349,11.423,11.423,0,0,1,2.987,3.741,10.7,10.7,0,0,1,1.082,4.782,13.6,13.6,0,0,1-.9,4.7,12.236,12.236,0,0,1-2.572,4.137,14.688,14.688,0,0,1-8.494,4.177,21.832,21.832,0,0,1-9.077-.585A21.732,21.732,0,0,1,11.8,55.733a14.952,14.952,0,0,1-3.215-3.689A12.113,12.113,0,0,1,7.5,49.708a12.258,12.258,0,0,1-.347-1.257L6.938,47.33a17.939,17.939,0,0,1,.728-9.382A20.137,20.137,0,0,1,13,30.381a60.608,60.608,0,0,1,6.743-5.258c2.275-1.566,4.529-3.059,6.656-4.64q.8-.591,1.573-1.2l.761-.61.68-.579a11.615,11.615,0,0,0,2.184-2.6,7.982,7.982,0,0,0,.848-6.268A13.3,13.3,0,0,0,31.08,5.937a17.8,17.8,0,0,0-2.1-2.969L28.9,2.88A1.727,1.727,0,0,1,31.369.468Z"/>
    </g>
    <g id="Group_692" data-name="Group 692">
      <circle id="Ellipse_17" data-name="Ellipse 17" cx="5.199" cy="5.199" r="5.199" transform="translate(8.911 62.701)"/>
    </g>
    <g id="Group_693" data-name="Group 693">
      <ellipse id="Ellipse_18" data-name="Ellipse 18" cx="8.236" cy="6.43" rx="8.236" ry="6.43" transform="translate(50.815 58.679) rotate(-12.569)"/>
    </g>
    <g id="Group_694" data-name="Group 694">
      <path id="Path_130" data-name="Path 130" d="M66.623,62.417a1,1,0,0,1-.929-.629c-4.253-10.633-2.253-26.69-2.166-27.369a1,1,0,0,1,1.983.255c-.021.161-2.019,16.224,2.04,26.371a1,1,0,0,1-.557,1.3A1.015,1.015,0,0,1,66.623,62.417Z"/>
    </g>
    <g id="Group_695" data-name="Group 695">
      <path id="Path_131" data-name="Path 131" d="M63.353,28.939s1.405,4.38,10.3,5.575,9.788,7.275,6.75,11.948c-.935-3.271-2.535-7.17-6.984-6.772A21.453,21.453,0,0,1,63.353,38.3C61.714,37.5,63.353,28.939,63.353,28.939Z"/>
    </g>
    <g id="Group_696" data-name="Group 696">
      <ellipse id="Ellipse_19" data-name="Ellipse 19" cx="7.547" cy="5.892" rx="7.547" ry="5.892" transform="matrix(0.988, -0.153, 0.153, 0.988, 125.975, 36.18)"/>
    </g>
    <g id="Group_697" data-name="Group 697">
      <ellipse id="Ellipse_20" data-name="Ellipse 20" cx="7.547" cy="5.892" rx="7.547" ry="5.892" transform="matrix(0.988, -0.153, 0.153, 0.988, 154.599, 31.739)"/>
    </g>
    <g id="Group_698" data-name="Group 698">
      <path id="Path_132" data-name="Path 132" d="M139.928,39.151a1,1,0,0,1-.97-.761c-2.651-10.779-.008-28.324.106-29.066a1,1,0,0,1,1.977.3c-.027.178-2.7,17.894-.142,28.285a1,1,0,0,1-.731,1.21A1.047,1.047,0,0,1,139.928,39.151Z"/>
    </g>
    <g id="Group_699" data-name="Group 699">
      <path id="Path_133" data-name="Path 133" d="M139.139,21.773a1,1,0,0,1-.013-2c.179,0,18.037-.257,28.53-2.765a1,1,0,1,1,.465,1.945c-10.712,2.56-28.229,2.811-28.97,2.82Z"/>
    </g>
    <g id="Group_700" data-name="Group 700">
      <path id="Path_134" data-name="Path 134" d="M168.867,36.138a1,1,0,0,1-.97-.761C165.246,24.6,167.889,7.052,168,6.311a1,1,0,0,1,1.977.3c-.027.178-2.7,17.895-.142,28.285a1,1,0,0,1-.731,1.21A1.041,1.041,0,0,1,168.867,36.138Z"/>
    </g>
    <g id="Group_705" data-name="Group 705">
      <g id="Group_701" data-name="Group 701">
        <ellipse id="Ellipse_21" data-name="Ellipse 21" cx="8.236" cy="6.43" rx="8.236" ry="6.43" transform="translate(89.832 50.035) rotate(-12.569)"/>
      </g>
      <g id="Group_702" data-name="Group 702">
        <path id="Path_135" data-name="Path 135" d="M105.642,53.772a1,1,0,0,1-.929-.629c-4.25-10.624-2.367-28.353-2.285-29.1a1,1,0,1,1,1.988.218c-.02.179-1.909,17.984,2.154,28.142a1,1,0,0,1-.557,1.3A1.015,1.015,0,0,1,105.642,53.772Z"/>
      </g>
      <g id="Group_703" data-name="Group 703">
        <path id="Path_136" data-name="Path 136" d="M102.372,20.294s1.427,4.226,10.3,5.575c7.13,1.084,9.145,8.969,8.707,12.036-.935-3.271-4.118-8.674-9.2-9.112a25.526,25.526,0,0,1-9.287-2.716C101.257,25.281,102.372,20.294,102.372,20.294Z"/>
      </g>
      <g id="Group_704" data-name="Group 704">
        <path id="Path_137" data-name="Path 137" d="M102.545,29.056s1.517,2.473,10.394,3.823c7.13,1.084,8.97,3.712,8.532,6.779-.935-3.271-3.943-3.417-9.025-3.855a27.472,27.472,0,0,1-9.464-2.541C101.343,32.465,102.545,29.056,102.545,29.056Z"/>
      </g>
    </g>
    <g id="Group_710" data-name="Group 710">
      <g id="Group_706" data-name="Group 706">
        <ellipse id="Ellipse_22" data-name="Ellipse 22" cx="8.236" cy="6.43" rx="8.236" ry="6.43" transform="translate(180.877 17.376) rotate(-9.968)"/>
      </g>
      <g id="Group_707" data-name="Group 707">
        <path id="Path_138" data-name="Path 138" d="M184.01,54.608a1,1,0,0,1-.944-.671c-3.764-10.807-.806-30.094-.678-30.91a1,1,0,0,1,1.977.31c-.031.195-3.009,19.609.59,29.942a1,1,0,0,1-.945,1.329Z"/>
      </g>
      <g id="Group_708" data-name="Group 708">
        <path id="Path_139" data-name="Path 139" d="M183.542,58.061s2.108-4.912,10.817-7.094c6.995-1.753,8.256-9.794,7.53-12.805-.621,3.345-3.28,9.025-8.3,9.941a33.848,33.848,0,0,0-10.111,3.7C181.925,52.747,183.542,58.061,183.542,58.061Z"/>
      </g>
      <g id="Group_709" data-name="Group 709">
        <path id="Path_140" data-name="Path 140" d="M183.659,47.748s1.276-2.606,9.986-4.788c6.995-1.753,8.893-3.54,8.167-6.551-.621,3.345-3.917,2.77-8.934,3.687A27.49,27.49,0,0,0,183.7,43.52C182.139,44.468,183.659,47.748,183.659,47.748Z"/>
      </g>
    </g>
    <g id="Group_711" data-name="Group 711">
      <path id="Path_141" data-name="Path 141" d="M168.786,13.824a157.1,157.1,0,0,1-30.74,2.193l.552-8.393a162.478,162.478,0,0,0,30.74-2.193Z"/>
    </g>
  </g>
</svg>
