<svg id="hero-illustration" xmlns="http://www.w3.org/2000/svg" width="470" height="325.475" viewBox="0 0 470 325.475">
  <g id="Group_661" data-name="Group 661" transform="translate(174.94 240.281)">
    <g id="Group_656" data-name="Group 656" transform="translate(0 0)">
      <rect id="Rectangle_250" data-name="Rectangle 250" width="2.289" height="98.787" transform="matrix(0.337, 0.942, -0.942, 0.337, 93.018, 0)" fill="#bf1e2e"/>
    </g>
    <g id="Group_657" data-name="Group 657" transform="translate(2.795 7.809)">
      <rect id="Rectangle_251" data-name="Rectangle 251" width="2.289" height="98.787" transform="matrix(0.337, 0.942, -0.942, 0.337, 93.018, 0)" fill="#bf1e2e"/>
    </g>
    <g id="Group_658" data-name="Group 658" transform="translate(5.589 15.62)">
      <rect id="Rectangle_252" data-name="Rectangle 252" width="2.289" height="98.787" transform="matrix(0.337, 0.942, -0.942, 0.337, 93.018, 0)" fill="#bf1e2e"/>
    </g>
    <g id="Group_659" data-name="Group 659" transform="translate(8.381 23.431)">
      <rect id="Rectangle_253" data-name="Rectangle 253" width="2.289" height="98.787" transform="matrix(0.337, 0.942, -0.942, 0.337, 93.018, 0)" fill="#bf1e2e"/>
    </g>
    <g id="Group_660" data-name="Group 660" transform="translate(11.172 31.241)">
      <rect id="Rectangle_254" data-name="Rectangle 254" width="2.289" height="98.787" transform="matrix(0.337, 0.942, -0.942, 0.337, 93.018, 0)" fill="#bf1e2e"/>
    </g>
  </g>
  <g id="Group_667" data-name="Group 667" transform="translate(16.659 169.447)">
    <g id="Group_662" data-name="Group 662" transform="translate(10.844 0)">
      <rect id="Rectangle_255" data-name="Rectangle 255" width="114.387" height="2.29" transform="matrix(0.97, 0.242, -0.242, 0.97, 0.554, 0)" fill="#bf1e2e"/>
    </g>
    <g id="Group_663" data-name="Group 663" transform="translate(8.13 10.891)">
      <rect id="Rectangle_256" data-name="Rectangle 256" width="114.387" height="2.29" transform="matrix(0.97, 0.242, -0.242, 0.97, 0.554, 0)" fill="#bf1e2e"/>
    </g>
    <g id="Group_664" data-name="Group 664" transform="translate(5.424 21.782)">
      <rect id="Rectangle_257" data-name="Rectangle 257" width="114.387" height="2.29" transform="matrix(0.97, 0.242, -0.242, 0.97, 0.554, 0)" fill="#bf1e2e"/>
    </g>
    <g id="Group_665" data-name="Group 665" transform="translate(2.707 32.673)">
      <rect id="Rectangle_258" data-name="Rectangle 258" width="114.387" height="2.29" transform="matrix(0.97, 0.242, -0.242, 0.97, 0.554, 0)" fill="#bf1e2e"/>
    </g>
    <g id="Group_666" data-name="Group 666" transform="translate(0 43.564)">
      <rect id="Rectangle_259" data-name="Rectangle 259" width="114.387" height="2.29" transform="matrix(0.97, 0.242, -0.242, 0.97, 0.554, 0)" fill="#bf1e2e"/>
    </g>
  </g>
  <g id="Group_673" data-name="Group 673" transform="translate(273.328 77.524)">
    <g id="Group_668" data-name="Group 668">
      <rect id="Rectangle_260" data-name="Rectangle 260" width="125.447" height="2.29" fill="#bf1e2e"/>
    </g>
    <g id="Group_669" data-name="Group 669" transform="translate(0 12.31)">
      <rect id="Rectangle_261" data-name="Rectangle 261" width="125.447" height="2.29" fill="#bf1e2e"/>
    </g>
    <g id="Group_670" data-name="Group 670" transform="translate(0 24.621)">
      <rect id="Rectangle_262" data-name="Rectangle 262" width="125.447" height="2.29" fill="#bf1e2e"/>
    </g>
    <g id="Group_671" data-name="Group 671" transform="translate(0 36.928)">
      <rect id="Rectangle_263" data-name="Rectangle 263" width="125.447" height="2.29" fill="#bf1e2e"/>
    </g>
    <g id="Group_672" data-name="Group 672" transform="translate(0 49.238)">
      <rect id="Rectangle_264" data-name="Rectangle 264" width="125.447" height="2.29" fill="#bf1e2e"/>
    </g>
  </g>
  <path id="Path_102" data-name="Path 102" d="M31.089,238.3,20.217,226.515,32,215.633l10.872,11.788Z" transform="translate(3.538 37.736)" fill="#353a5d"/>
  <path id="Path_103" data-name="Path 103" d="M355.288,63.581l-17.18,14.1L324.02,60.487l17.179-14.1Z" transform="translate(56.704 8.118)" fill="#353a5d" opacity="0.2"/>
  <path id="Path_143" data-name="Path 143" d="M355.288,63.581l-17.18,14.1L324.02,60.487l17.179-14.1Z" transform="translate(-245.691 229.514)" fill="#353a5d" opacity="0.2"/>
  <path id="Path_144" data-name="Path 144" d="M344.488,55.617l-11.246-9.23L324.02,57.642l11.245,9.23Z" transform="translate(-209.691 36.922)" fill="#353a5d" opacity="0.2"/>
  <path id="Path_146" data-name="Path 146" d="M344.488,55.617l-11.246-9.23L324.02,57.642l11.245,9.23Z" transform="translate(67.503 229.518)" fill="#353a5d" opacity="0.2"/>
  <path id="Path_145" data-name="Path 145" d="M356.215,60.905,338.526,46.387l-14.506,17.7,17.688,14.518Z" transform="translate(-251.554 -13.946)" fill="#353a5d" opacity="0.2"/>
  <g id="Group_674" data-name="Group 674" transform="translate(177.433 78.327)">
    <path id="Path_106" data-name="Path 106" d="M155.582,143.742h-4.575v-49.9l60.129-27.178V131.19h-4.575V73.754L155.582,96.8Z" transform="translate(-151.007 -66.661)" fill="#353a5d"/>
    <path id="Path_104" data-name="Path 104" d="M133.385,135.041l12.155-13.179,13.168,12.166-12.155,13.18Z" transform="translate(-154.091 -57.001)" fill="#353a5d"/>
    <path id="Path_105" data-name="Path 105" d="M180.628,124.376l12.157-13.18,13.168,12.166L193.8,136.542Z" transform="translate(-145.823 -58.867)" fill="#353a5d"/>
    <g id="Group_676" data-name="Group 676" transform="translate(1.805 14.233)">
      <path id="Path_109" data-name="Path 109" d="M154.485,108.68l-1.942-4.147,54.912-25.76,1.941,4.147Z" transform="translate(-152.543 -78.774)" fill="#353a5d"/>
    </g>
  </g>
  <path id="Path_107" data-name="Path 107" d="M187.357,265.27l3.762,10.016-10.006,3.767-3.764-10.016Z" transform="translate(31.036 46.422)" fill="#bf1e2e"/>
  <g id="Group_675" data-name="Group 675" transform="translate(0 72.834)">
    <path id="Path_108" data-name="Path 108" d="M46.373,254.274H41.8V205.849L0,164.017l41.8-41.834v-60.2L75.108,95.325l-28.736,28.76v24.055l6.435-6.441,28.4,28.426L46.373,204.991S46.373,254.274,46.373,254.274Zm-39.9-90.256L41.8,199.372V159.195L30.021,170.98l-3.235-3.237L41.8,152.717V128.663Zm39.9-9.4v43.9l28.364-28.392-21.931-21.95Zm0-81.576V117.6l22.263-22.28Z" transform="translate(0 -61.986)" fill="#353a5d"/>
  </g>
  <path id="Path_110" data-name="Path 110" d="M227.873,251.375l-11.119-12.055L228.8,228.191l11.119,12.056Z" transform="translate(37.932 39.933)" fill="#353a5d"/>
  <path id="Path_111" data-name="Path 111" d="M184.658,241.628l-11.119-12.055,12.045-11.128L196.7,230.5Z" transform="translate(30.369 38.228)" fill="#353a5d"/>
  <g id="Group_677" data-name="Group 677" transform="translate(203.901 208.46)">
    <path id="Path_112" data-name="Path 112" d="M228.926,248.226h-4.575V205.4l-46.242-20.9V236.74h-4.575V177.413l55.393,25.035Z" transform="translate(-173.533 -177.413)" fill="#353a5d"/>
  </g>
  <path id="Path_113" data-name="Path 113" d="M263.144,91,275.3,77.819l13.168,12.166-12.157,13.18Z" transform="translate(46.05 13.618)" fill="#353a5d"/>
  <path id="Path_114" data-name="Path 114" d="M292.909,104.863l12.155-13.179,13.168,12.166-12.155,13.18Z" transform="translate(51.259 16.045)" fill="#353a5d"/>
  <g id="Group_678" data-name="Group 678" transform="translate(329.959 35.657)">
    <path id="Path_115" data-name="Path 115" d="M320.352,114.593h-4.575V37.464L285.391,51.329V98.283h-4.576v-49.9l39.536-18.039Z" transform="translate(-280.816 -30.346)" fill="#353a5d"/>
  </g>
  <g id="Group_679" data-name="Group 679" transform="translate(331.644 49.901)">
    <path id="Path_116" data-name="Path 116" d="M284.243,63.205l-1.993-4.122,34.311-16.615,1.993,4.123Z" transform="translate(-282.25 -42.469)" fill="#353a5d"/>
  </g>
  <path id="Path_117" data-name="Path 117" d="M359.409,220.624l12.155-13.18,13.168,12.166-12.155,13.18Z" transform="translate(62.897 36.303)" fill="#353a5d"/>
  <g id="Group_680" data-name="Group 680" transform="translate(443.088 189.597)">
    <path id="Path_118" data-name="Path 118" d="M381.671,227.625H377.1V177.99l24.329-16.631,2.583,3.784L381.671,180.41Z" transform="translate(-377.096 -161.359)" fill="#353a5d"/>
  </g>
  <g id="Group_681" data-name="Group 681" transform="translate(444.503 202.404)">
    <path id="Path_119" data-name="Path 119" d="M381,192.548l-2.7-3.7L401,172.259l2.7,3.7Z" transform="translate(-378.3 -172.259)" fill="#353a5d"/>
  </g>
  <path id="Path_120" data-name="Path 120" d="M180.537,12.166l-12.155,13.18L155.213,13.18,167.368,0Z" transform="translate(27.162)" fill="#bf1e2e"/>
  <g id="Group_682" data-name="Group 682" transform="translate(182.373 13.198)">
    <rect id="Rectangle_265" data-name="Rectangle 265" width="4.575" height="48.426" fill="#bf1e2e"/>
  </g>
  <path id="Path_121" data-name="Path 121" d="M286.624,197.12l-17.073-17.088,17.073-17.088L303.7,180.032Z" transform="translate(47.171 28.515)" fill="#353a5d"/>
  <rect id="Rectangle_266" data-name="Rectangle 266" width="8.911" height="8.919" transform="translate(379.291 226.85)" fill="#353a5d"/>
  <rect id="Rectangle_267" data-name="Rectangle 267" width="8.911" height="8.919" transform="translate(379.291 200.174)" fill="#353a5d"/>
  <g id="Group_683" data-name="Group 683" transform="translate(325.32 200.746)">
    <path id="Path_122" data-name="Path 122" d="M289.625,232.563l-12.757-12.768,3.235-3.237,9.522,9.529,26.841-26.864L291.35,174.086l3.235-3.238,28.35,28.375Z" transform="translate(-276.868 -170.848)" fill="#353a5d"/>
  </g>
</svg>
