<svg xmlns="http://www.w3.org/2000/svg" width="140.932" height="97.656" viewBox="0 0 140.932 97.656">
  <g id="no-results" transform="translate(-100.811 -7080.146)">
    <g id="cyborg-web-browser-searching-man" transform="translate(106.37 7079.147)">
      <path id="Path_220" data-name="Path 220" d="M158.413,2.339v9.635H65.267V2.339A2.339,2.339,0,0,1,67.606,0h88.469a2.339,2.339,0,0,1,2.339,2.339Z" transform="translate(-49.662 1)" fill="#353a5d"/>
      <circle id="Ellipse_26" data-name="Ellipse 26" cx="1.73" cy="1.73" r="1.73" transform="translate(101.114 4.957)" fill="#bf1e2e"/>
      <circle id="Ellipse_27" data-name="Ellipse 27" cx="1.73" cy="1.73" r="1.73" transform="translate(95.525 4.957)" fill="#fd9b19"/>
      <circle id="Ellipse_28" data-name="Ellipse 28" cx="1.73" cy="1.73" r="1.73" transform="translate(89.913 4.957)" fill="#fff"/>
      <g id="Path_221" data-name="Path 221" transform="translate(-49.662 -27.394)" fill="#fff">
        <path d="M 156.074462890625 125.3002243041992 L 67.60558319091797 125.3002243041992 C 66.72966003417969 125.3002243041992 66.01704406738281 124.5875930786133 66.01702880859375 123.7116546630859 L 66.01702880859375 40.81899642944336 L 157.6630096435547 40.81899642944336 L 157.6630096435547 123.7116851806641 C 157.6630096435547 124.5876083374023 156.9503936767578 125.3002243041992 156.074462890625 125.3002243041992 Z" stroke="none"/>
        <path d="M 156.074462890625 124.5502243041992 C 156.5368347167969 124.5502243041992 156.9130096435547 124.1740493774414 156.9130096435547 123.7116775512695 L 156.9130096435547 41.56900787353516 L 66.76702880859375 41.56900787353516 L 66.76702880859375 123.7116775512695 C 66.76702880859375 124.1740493774414 67.14320373535156 124.5502243041992 67.60557556152344 124.5502243041992 L 156.074462890625 124.5502243041992 M 156.074462890625 126.0502243041992 L 67.60557556152344 126.0502243041992 C 66.31404876708984 126.0502243041992 65.26702880859375 125.0032196044922 65.26702880859375 123.7116775512695 L 65.26702880859375 40.06900787353516 L 158.4130096435547 40.06900787353516 L 158.4130096435547 123.7116775512695 C 158.4130096435547 125.0032196044922 157.3660125732422 126.0502243041992 156.074462890625 126.0502243041992 Z" stroke="none" fill="#353a5d"/>
      </g>
      <g id="Group_974" data-name="Group 974" transform="translate(22.55 19.221)">
        <path id="Path_222" data-name="Path 222" d="M253.41,114.587h-24.5a.933.933,0,1,0,0,1.866h24.5a.932.932,0,0,0,.933-.933.9.9,0,0,0-.932-.933Z" transform="translate(-186.301 -98.865)" fill="#353a5d"/>
        <path id="Path_223" data-name="Path 223" d="M196.069,114.587h-7.9a.933.933,0,1,0,0,1.866h7.9a.932.932,0,0,0,.933-.933.9.9,0,0,0-.933-.933Z" transform="translate(-157.73 -98.865)" fill="#353a5d"/>
        <path id="Path_224" data-name="Path 224" d="M235.592,97.665H188.165a.932.932,0,0,0-.933.933.965.965,0,0,0,.933.933h47.428a.932.932,0,0,0,.933-.933.965.965,0,0,0-.933-.933Z" transform="translate(-157.731 -87)" fill="#353a5d"/>
        <path id="Path_225" data-name="Path 225" d="M298.725,80.906H278.2a.932.932,0,0,0-.933.933.965.965,0,0,0,.933.933h20.523a.932.932,0,0,0,.933-.933A.965.965,0,0,0,298.725,80.906Z" transform="translate(-220.864 -75.249)" fill="#353a5d"/>
        <path id="Path_226" data-name="Path 226" d="M210.914,80.906H188.329a.932.932,0,0,0-.933.933.965.965,0,0,0,.933.933h22.585a.932.932,0,0,0,.933-.933A.965.965,0,0,0,210.914,80.906Z" transform="translate(-157.846 -75.249)" fill="#353a5d"/>
        <path id="Path_227" data-name="Path 227" d="M253.41,200.66h-24.5a.933.933,0,1,0,0,1.866h24.5a.932.932,0,0,0,.933-.933.9.9,0,0,0-.932-.933Z" transform="translate(-186.301 -159.218)" fill="#353a5d"/>
        <path id="Path_228" data-name="Path 228" d="M196.069,200.66h-7.9a.933.933,0,0,0,0,1.866h7.9a.932.932,0,0,0,.933-.933.9.9,0,0,0-.933-.933Z" transform="translate(-157.73 -159.218)" fill="#353a5d"/>
        <path id="Path_229" data-name="Path 229" d="M235.592,183.738H188.165a.932.932,0,0,0-.933.933.966.966,0,0,0,.933.933h47.428a.932.932,0,0,0,.933-.933A.966.966,0,0,0,235.592,183.738Z" transform="translate(-157.731 -147.353)" fill="#353a5d"/>
        <path id="Path_230" data-name="Path 230" d="M298.725,166.979H278.2a.932.932,0,0,0-.933.933.965.965,0,0,0,.933.933h20.523a.932.932,0,0,0,.933-.933A.966.966,0,0,0,298.725,166.979Z" transform="translate(-220.864 -135.602)" fill="#353a5d"/>
        <path id="Path_231" data-name="Path 231" d="M210.917,166.979H188.332a.932.932,0,0,0-.932.933.966.966,0,0,0,.933.933h22.584a.932.932,0,0,0,.933-.933A.966.966,0,0,0,210.917,166.979Z" transform="translate(-157.849 -135.602)" fill="#353a5d"/>
        <path id="Path_232" data-name="Path 232" d="M253.41,277.289h-24.5a.933.933,0,1,0,0,1.866h24.5a.932.932,0,0,0,.933-.933.9.9,0,0,0-.932-.933Z" transform="translate(-186.301 -212.949)" fill="#353a5d"/>
        <path id="Path_233" data-name="Path 233" d="M196.069,277.289h-7.9a.933.933,0,1,0,0,1.866h7.9a.932.932,0,0,0,.933-.933.9.9,0,0,0-.933-.933Z" transform="translate(-157.73 -212.949)" fill="#353a5d"/>
        <path id="Path_234" data-name="Path 234" d="M235.592,260.366H188.165a.932.932,0,0,0-.933.933.966.966,0,0,0,.933.933h47.428a.932.932,0,0,0,.933-.933A.966.966,0,0,0,235.592,260.366Z" transform="translate(-157.731 -201.083)" fill="#353a5d"/>
        <path id="Path_235" data-name="Path 235" d="M298.725,243.607H278.2a.932.932,0,0,0-.933.933.966.966,0,0,0,.933.933h20.523a.932.932,0,0,0,.933-.933.966.966,0,0,0-.933-.933Z" transform="translate(-220.864 -189.332)" fill="#353a5d"/>
        <path id="Path_236" data-name="Path 236" d="M210.914,243.607H188.329a.932.932,0,0,0-.933.933.966.966,0,0,0,.933.933h22.585a.932.932,0,0,0,.933-.933.966.966,0,0,0-.933-.933Z" transform="translate(-157.846 -189.332)" fill="#353a5d"/>
        <path id="Path_237" data-name="Path 237" d="M0,0H71.053V21.126H0Z" transform="translate(21.724 0.598) rotate(90)" fill="#353a5d"/>
        <path id="Path_238" data-name="Path 238" d="M110.231,134.224H89.1a.6.6,0,0,1-.6-.6V62.574a.6.6,0,0,1,.6-.6h21.126a.6.6,0,0,1,.6.6v71.053A.6.6,0,0,1,110.231,134.224Zm-20.529-1.2h19.931V63.171H89.7Z" transform="translate(-88.507 -61.976)" fill="#353a5d"/>
      </g>
      <path id="Path_239" data-name="Path 239" d="M105.085,253.519c0-2.839.528-5.15,4.226-5.745a3.629,3.629,0,1,1,5.613-3.037,3.581,3.581,0,0,1-1.651,3.037c3.7.594,4.16,2.905,4.226,5.745,0,.066,0,.2-.066.2a.243.243,0,0,1-.2.066H105.481c-.066,0-.132-.066-.2-.066-.2,0-.2-.066-.2-.2Z" transform="translate(-77.581 -168.357)" fill="#fff"/>
      <path id="Path_240" data-name="Path 240" d="M105.085,93.32c0-2.839.528-5.151,4.226-5.745a3.629,3.629,0,1,1,5.613-3.037,3.582,3.582,0,0,1-1.651,3.037c3.7.594,4.16,2.905,4.226,5.745,0,.066,0,.2-.066.2a.243.243,0,0,1-.2.066H105.481c-.066,0-.132-.066-.2-.066-.2,0-.2-.066-.2-.2Z" transform="translate(-77.581 -56.028)" fill="#fff"/>
      <circle id="Ellipse_29" data-name="Ellipse 29" cx="19.582" cy="19.582" r="19.582" transform="translate(13.848 35.858)" fill="#bf1e2e"/>
      <path id="Path_241" data-name="Path 241" d="M77.567,156.011a20.18,20.18,0,1,1,20.18-20.18A20.18,20.18,0,0,1,77.567,156.011Zm0-39.165a18.985,18.985,0,1,0,18.985,18.985A18.985,18.985,0,0,0,77.567,116.847Z" transform="translate(-44.136 -80.391)" fill="#142664"/>
      <path id="Path_242" data-name="Path 242" d="M89.555,116.1a21.572,21.572,0,1,0,0,30.507,21.572,21.572,0,0,0,0-30.507Zm-27.42,27.641a17.28,17.28,0,0,1-5.069-11.645,16.023,16.023,0,0,1,.025-1.8,17.357,17.357,0,0,1,34.644.072,15.942,15.942,0,0,1,.021,1.8,17.359,17.359,0,0,1-29.622,11.573Z" transform="translate(-40.871 -76.272)" fill="#bf1e2e"/>
      <path id="Path_243" data-name="Path 243" d="M0,0H8.008V28.969a4,4,0,1,1-8.008,0V0Z" transform="translate(17.757 65.086) rotate(45)" fill="#bf1e2e"/>
      <circle id="Ellipse_30" data-name="Ellipse 30" cx="16.355" cy="16.355" r="16.355" transform="translate(17.129 38.845)" fill="#f0f0f0"/>
    </g>
    <path id="Path_244" data-name="Path 244" d="M330.11,49.133l-3.346-2.746-2.744,3.349,3.346,2.746Z" transform="translate(-97.497 7125.321)" fill="#353a5d" opacity="0.2"/>
    <path id="Path_246" data-name="Path 246" d="M330.11,49.133l-3.346-2.746-2.744,3.349,3.346,2.746Z" transform="translate(-222.065 7043.321)" fill="#353a5d" opacity="0.2"/>
    <path id="Path_245" data-name="Path 245" d="M334.057,50.913l-5.515-4.526-4.522,5.519,5.514,4.526Z" transform="translate(106.172 7463.828) rotate(-76)" fill="#fd9b19"/>
  </g>
</svg>
