<svg xmlns="http://www.w3.org/2000/svg" width="153.993" height="159.24" viewBox="0 0 153.993 159.24">
  <g id="profile-welcome" transform="translate(-41.324 -17.162)">
    <path id="Path_5" data-name="Path 5" d="M287.411,112.463l.789-30.081a.358.358,0,0,1,.479-.338l7.133,2.368a.516.516,0,0,1,.338.536l-5.272,36.875a.3.3,0,0,1-.507.169l-20.947-20.073a.6.6,0,0,1-.169-.564l1.889-7.7a.193.193,0,0,1,.338-.085Z" transform="translate(-163.66 -46.574)" fill="#ff9b19"/>
    <circle id="Ellipse_1" data-name="Ellipse 1" cx="1.72" cy="1.72" r="1.72" transform="translate(105.68 101.918)" fill="#ff9b19"/>
    <circle id="Ellipse_2" data-name="Ellipse 2" cx="0.987" cy="0.987" r="0.987" transform="translate(112.587 103.582)" fill="#ff9b19"/>
    <circle id="Ellipse_3" data-name="Ellipse 3" cx="1.889" cy="1.889" r="1.889" transform="translate(115.631 110.094)" fill="#ff9b19"/>
    <circle id="Ellipse_4" data-name="Ellipse 4" cx="2.058" cy="2.058" r="2.058" transform="translate(105.2 68.68)" fill="#ff9b19"/>
    <circle id="Ellipse_5" data-name="Ellipse 5" cx="1.325" cy="1.325" r="1.325" transform="translate(156.989 84.439)" fill="#ff9b19"/>
    <circle id="Ellipse_6" data-name="Ellipse 6" cx="1.917" cy="1.917" r="1.917" transform="translate(164.009 81.479)" fill="#ff9b19"/>
    <circle id="Ellipse_7" data-name="Ellipse 7" cx="2.171" cy="2.171" r="2.171" transform="translate(161.246 110.094)" fill="#ff9b19"/>
    <g id="Group_521" data-name="Group 521" transform="translate(148.842 100.17)">
      <path id="Path_6" data-name="Path 6" d="M423.743,313.489a.951.951,0,0,1-1.043-.93,1.086,1.086,0,0,1,1.015-.959l9.754.31c.564,0,1.043.338,1.043.761a.931.931,0,0,1-1.015.789l-9.754.028Z" transform="translate(-422.7 -311.6)" fill="#ff9b19"/>
    </g>
    <g id="Group_522" data-name="Group 522" transform="translate(153.718 93.177)">
      <path id="Path_7" data-name="Path 7" d="M441.012,301.2h-.028a1.035,1.035,0,0,1-.987-1.071l.677-12.348c.028-.564.31-1.015.874-.987a1.035,1.035,0,0,1,.987,1.071l-.507,12.348A1.024,1.024,0,0,1,441.012,301.2Z" transform="translate(-439.996 -286.796)" fill="#ff9b19"/>
    </g>
    <g id="Group_523" data-name="Group 523" transform="translate(116.393 79.224)">
      <path id="Path_8" data-name="Path 8" d="M308.643,254.1a1.041,1.041,0,0,1-1.043-1.043l.2-14.716c0-.564.254-1.043.846-1.043a1.023,1.023,0,0,1,1.043,1.043l.2,14.716C309.855,253.651,309.573,254.1,308.643,254.1Z" transform="translate(-307.6 -237.3)" fill="#ff9b19"/>
    </g>
    <g id="Group_524" data-name="Group 524" transform="translate(111.544 85.792)">
      <path id="Path_9" data-name="Path 9" d="M290.4,261.756c0-.592.423-.874,1.015-.874L301,260.6h.028a1.054,1.054,0,0,1,1.043,1.015,1.04,1.04,0,0,1-1.015,1.071l-9.36-.113C291.669,262.545,290.4,262.658,290.4,261.756Z" transform="translate(-290.4 -260.6)" fill="#ff9b19"/>
    </g>
    <g id="Group_525" data-name="Group 525" transform="translate(94.571 67.608)">
      <path id="Path_10" data-name="Path 10" d="M231.24,211.407h-.056a1.043,1.043,0,0,1-.987-1.1l.9-12.827c.028-.564.31-1.41.9-1.381a1.043,1.043,0,0,1,.987,1.1l-.31,13.222C232.565,211.407,231.8,211.407,231.24,211.407Z" transform="translate(-230.196 -196.098)" fill="#ff9b19"/>
    </g>
    <g id="Group_526" data-name="Group 526" transform="translate(89.554 74.798)">
      <path id="Path_11" data-name="Path 11" d="M223.705,223.686l-10.262-.2c-.564,0-1.043-.254-1.043-.846s.451-.846,1.043-.846l10.262-.2a1.043,1.043,0,0,1,0,2.086Z" transform="translate(-212.4 -221.6)" fill="#ff9b19"/>
    </g>
    <g id="Group_534" data-name="Group 534" transform="translate(41.324 90.044)">
      <path id="Path_12" data-name="Path 12" d="M54.286,417.5a77.524,77.524,0,0,0-7.894,2.565C43.911,421.137,38.5,425,43.15,430.215s23.287,10.572,27.431,12.123c4.144,1.579,33.041,11.446,40.343,20.016l1.579,1.466s15.083-14.688,26.162-20.129,15-6.71,24.471-8.4l-28.22-16.774Z" transform="translate(-41.324 -377.518)" fill="#bf1e2e" opacity="0.1"/>
      <g id="Group_527" data-name="Group 527" transform="translate(1.985 0)">
        <path id="Path_13" data-name="Path 13" d="M74.406,291.642c2.086,1.832,1.212,5.244.479,7.133a104.387,104.387,0,0,1,26.557-10.29,216.267,216.267,0,0,1,25.655-4.652c1.438-2.284,1.325-9.444-4.426-7.95-8.035,2.058-46.771,12.038-51,13.927-.366.169-.733.338-1.071.507A5,5,0,0,1,74.406,291.642Z" transform="translate(-64.331 -275.679)" fill="#353a5d"/>
        <path id="Path_14" data-name="Path 14" d="M105.012,322c-4.68-4-5.244-6.879-5.328-7.7a125.572,125.572,0,0,0-14.011,2.791c-17.084,4.172-27.177,11.22-27.29,11.277-.874.479-1.269-.423-.846-.959.028-.056,2.706-5.272.31-7.358a4.033,4.033,0,0,0-3.242-1.1,7.316,7.316,0,0,0-3.834,2c-1.832,2.171-2.876,5.469-2.2,10.8,1.071,8.429,25.147,24.386,27.713,26.162s41.245,31.857,41.245,31.857c15.985-21.2,51.507-35.409,51.507-35.409S115.077,330.567,105.012,322Z" transform="translate(-48.364 -303.412)" fill="#353a5d"/>
      </g>
      <g id="Group_529" data-name="Group 529" transform="translate(22.014 14.807)">
        <g id="Group_528" data-name="Group 528" transform="translate(4.406 4.929)">
          <path id="Path_15" data-name="Path 15" d="M146.925,365.79a.568.568,0,0,1-.31-.085l-11.333-7.7a.593.593,0,0,1-.226-.62.518.518,0,0,1,.536-.366l11.079.282-1.551-8.317a.613.613,0,0,1,.226-.564.56.56,0,0,1,.592,0l7.443,4.821,1.776-7.161a.509.509,0,0,1,.479-.395.494.494,0,0,1,.536.31,22.823,22.823,0,0,0,5.244,7.161,11.743,11.743,0,0,0,2.565,1.776.553.553,0,0,1,.338.536.509.509,0,0,1-.395.479c-9.134,2.594-16.577,9.67-16.633,9.726A.705.705,0,0,1,146.925,365.79Zm-9.5-7.64,9.473,6.428a46.684,46.684,0,0,1,15.534-9.332,20.681,20.681,0,0,1-6.541-7.527l-1.635,6.512a.559.559,0,0,1-.846.31L146.418,350l1.438,7.753a.608.608,0,0,1-.113.451.6.6,0,0,1-.423.2Z" transform="translate(-135.039 -345.685)" fill="#ff9b19"/>
        </g>
        <circle id="Ellipse_8" data-name="Ellipse 8" cx="1.466" cy="1.466" r="1.466" transform="translate(11.782 3.101)" fill="#ff9b19"/>
        <circle id="Ellipse_9" data-name="Ellipse 9" cx="1.297" cy="1.297" r="1.297" transform="translate(23.481)" fill="#ff9b19"/>
        <circle id="Ellipse_10" data-name="Ellipse 10" cx="1.466" cy="1.466" r="1.466" transform="matrix(0.995, -0.099, 0.099, 0.995, 0, 13.314)" fill="#ff9b19"/>
      </g>
      <g id="Group_530" data-name="Group 530" transform="translate(84.427 42.236)">
        <path id="Path_16" data-name="Path 16" d="M355.317,439.875l-2.96-.507a63.337,63.337,0,0,0-9.867-.395,1.636,1.636,0,1,1-.113-3.27c.2,0,4.454.254,8.035.507-.987-2.284-2.847-6.033-3.947-8.429a1.622,1.622,0,0,1,2.96-1.325c1.8,4,4.652,10.572,4.68,10.657Z" transform="translate(-340.797 -425.496)" fill="#fff"/>
      </g>
      <g id="Group_531" data-name="Group 531" transform="translate(57.765 39.958)">
        <path id="Path_17" data-name="Path 17" d="M247.006,436.186a.751.751,0,0,1-.564-.254.8.8,0,0,1,.028-1.128c6.935-6.484,15.365-12.038,21.51-16.069q.93-.592,1.776-1.184a.794.794,0,0,1,.874,1.325q-.846.55-1.776,1.184c-6.118,4.031-14.491,9.529-21.313,15.928A.791.791,0,0,1,247.006,436.186Z" transform="translate(-246.223 -417.415)" fill="#fff"/>
      </g>
      <g id="Group_532" data-name="Group 532" transform="translate(52.099 37.019)">
        <path id="Path_18" data-name="Path 18" d="M226.934,424.471a.812.812,0,0,1-.592-.254.8.8,0,0,1,.028-1.128c5.385-4.99,12.292-9.642,22.413-15.985a.8.8,0,1,1,.846,1.353c-10.036,6.287-16.887,10.882-22.187,15.788A.66.66,0,0,1,226.934,424.471Z" transform="translate(-226.123 -406.988)" fill="#fff"/>
      </g>
      <g id="Group_533" data-name="Group 533" transform="translate(46.798 33.55)">
        <path id="Path_19" data-name="Path 19" d="M208.106,411.577a.751.751,0,0,1-.564-.254.8.8,0,0,1,.028-1.128,103.4,103.4,0,0,1,22.187-15.421.794.794,0,0,1,.733,1.41,102.134,102.134,0,0,0-21.821,15.167A.764.764,0,0,1,208.106,411.577Z" transform="translate(-207.323 -394.686)" fill="#fff"/>
      </g>
    </g>
    <g id="Group_537" data-name="Group 537" transform="translate(122.172 17.163)">
      <path id="Path_20" data-name="Path 20" d="M329.5,376.735s26.331.395,28.5.395,10.544.395,12.038.395,2.086-.874.9-1.071-8.683-.987-13.532-1.1-25.542-.113-27.91.507v.874Z" transform="translate(-329.105 -274.331)" fill="#bf1e2e" opacity="0.1"/>
      <path id="Path_21" data-name="Path 21" d="M349.1,328.243l-.085-1.071c-.2-1.3-1.692-1.1-1.692-1.1s-10.065.282-11.531.395a1.572,1.572,0,0,0-1.466,1.579l-.028.254Z" transform="translate(-332.552 -238.977)" fill="#324a58"/>
      <g id="Group_535" data-name="Group 535" transform="translate(0 90.31)">
        <path id="Path_22" data-name="Path 22" d="M346.751,346.775,345.68,337.5l-15.139.226-1.24,9.388Z" transform="translate(-328.962 -337.5)" fill="#324a58"/>
        <path id="Path_23" data-name="Path 23" d="M328.3,374.395l-.2,1.522,18.127.141L346,374Z" transform="translate(-328.1 -363.71)" fill="#324a58"/>
      </g>
      <path id="Path_24" data-name="Path 24" d="M344.5,315.465l8.768-.31a6.06,6.06,0,0,1-1.776-3.355h-4.934A4.987,4.987,0,0,1,344.5,315.465Z" transform="translate(-339.876 -228.736)" fill="#324a58"/>
      <path id="Path_25" data-name="Path 25" d="M349.35,301.163l5.046.113s2.565-1.381,1.184-2.255c-1.381-.9-4.934-.789-6.2-.2C348.053,299.387,347.968,300.486,349.35,301.163Z" transform="translate(-342.64 -219.085)" fill="#324a58"/>
      <g id="Group_536" data-name="Group 536" transform="translate(9.472)">
        <path id="Path_26" data-name="Path 26" d="M476.717,103.776a1.373,1.373,0,0,0,.31-.113,3.684,3.684,0,0,0,.987-.536,1.9,1.9,0,0,0,.648-.846.941.941,0,0,0,.028-.479.685.685,0,0,0-.254-.395,1.322,1.322,0,0,0-.93-.226,3.5,3.5,0,0,0-1.015.31,5.107,5.107,0,0,0-.93.564,4.858,4.858,0,0,0-.761.761c.31.113.62.254.93.395C476.069,103.382,476.379,103.579,476.717,103.776Z" transform="translate(-442.915 -77.491)" fill="#bf1e2e"/>
        <path id="Path_27" data-name="Path 27" d="M471.639,111.7a4.149,4.149,0,0,0,.169,2.114,6.116,6.116,0,0,0,5.864,3.158,3.637,3.637,0,0,0,.789-.226c-.085-.141-.2-.282-.282-.423a22.544,22.544,0,0,0-1.8-2.425,11.1,11.1,0,0,0-2.2-1.945c-.113-.056-.2-.141-.31-.2l-.31-.2c-.226-.113-.423-.226-.648-.338a7.75,7.75,0,0,0-1.015-.423A4.734,4.734,0,0,0,471.639,111.7Z" transform="translate(-440.6 -84.402)" fill="#bf1e2e"/>
        <path id="Path_28" data-name="Path 28" d="M400.428,122.781a39.075,39.075,0,0,1,4.4-4.511c.395-.338.818-.677,1.212-1.015q.634-.507,1.269-.93a20.926,20.926,0,0,1,2.763-1.635,17.8,17.8,0,0,1,3.045-1.128l.395-.085.2-.056.2-.028.395-.085.395-.056.2-.028.2-.028.395-.028c.282,0,.536-.028.818-.028a13.509,13.509,0,0,1,3.355.423.591.591,0,0,0-.113-.169,5.779,5.779,0,0,1-.451-1.156,5.536,5.536,0,0,1-.085-2.453,4.019,4.019,0,0,1,.31-.987,15.153,15.153,0,0,0-8.514.282,26.7,26.7,0,0,0-2.819,1.128c-.93.451-1.8.93-2.678,1.466-.2.113-.395.254-.62.366-2.171,4.37-3.975,8.57-5.385,12.094C399.695,123.683,400.061,123.232,400.428,122.781Z" transform="translate(-388.7 -82.625)" fill="#bf1e2e"/>
        <path id="Path_29" data-name="Path 29" d="M497.439,55.757a5.581,5.581,0,0,0,1.325-.423,10.871,10.871,0,0,0,2.453-1.466,23.667,23.667,0,0,0,2.171-1.973l.254-.282a1.823,1.823,0,0,0,.225-.254c.141-.169.31-.366.423-.536a10.9,10.9,0,0,0,.761-1.212,18.7,18.7,0,0,0,1.212-2.65,24.893,24.893,0,0,0,.846-2.819,27.333,27.333,0,0,0,.733-5.836,22.755,22.755,0,0,0-.564-5.864,19.772,19.772,0,0,0-2.086-5.469,17.524,17.524,0,0,0-1.691-2.4,17.981,17.981,0,0,0-2.086-2.058,17.593,17.593,0,0,0-2.424-1.663,21.221,21.221,0,0,0-2.678-1.269,24.734,24.734,0,0,0-3.1-.987,23.979,23.979,0,0,0-5.131,1.663,28.037,28.037,0,0,0-5.779,3.411,22.84,22.84,0,0,1,3.158-.846,20.163,20.163,0,0,1,9.613.282,13.606,13.606,0,0,1,7.245,5.187A16.291,16.291,0,0,1,505.3,38.532a17.663,17.663,0,0,1-2.96,9.613,9.058,9.058,0,0,1-5.328,4.031,8.825,8.825,0,0,1-1.41.141,3.047,3.047,0,0,1-2.143-.648c-.7-.677-1.692-3.3,1.579-4.229,1.832-.536,2.706,0,3.158.9a1.174,1.174,0,0,1,.056.7,2.129,2.129,0,0,0,.31-.395,5.491,5.491,0,0,0,.677-1.269,3.972,3.972,0,0,0,.2-1.41,2.9,2.9,0,0,0-.141-.677,4.429,4.429,0,0,0-.254-.648,2.635,2.635,0,0,0-.874-1.043A3.164,3.164,0,0,0,496.9,43.1a4.724,4.724,0,0,0-1.41,0,6.236,6.236,0,0,0-.7.141,15.7,15.7,0,0,1-.9,2.143,12.739,12.739,0,0,1-2.96,3.778,12.108,12.108,0,0,1-1.41,1.043,4.02,4.02,0,0,0,.254.761,7.136,7.136,0,0,0,1.522,2.34c.338.338.677.677,1.043.987a6.594,6.594,0,0,0,1.156.818,5.329,5.329,0,0,0,2.594.761A5.6,5.6,0,0,0,497.439,55.757Z" transform="translate(-448.3 -18.195)" fill="#bf1e2e"/>
        <path id="Path_30" data-name="Path 30" d="M493.144,143.727a13.468,13.468,0,0,0,.169-1.494,13.1,13.1,0,0,0-.028-1.494,13.659,13.659,0,0,0-.226-1.494,14.118,14.118,0,0,0-.395-1.466c-.169-.479-.338-.93-.536-1.41-.2-.423-.395-.846-.62-1.269-.366.113-.761.226-1.156.31a8.872,8.872,0,0,1-1.212.141H489c.169.169.367.367.536.564.085.113.169.2.254.31l.254.338c.085.113.141.226.226.338l.226.338a11.588,11.588,0,0,1,.761,1.438,10.065,10.065,0,0,1,.818,3.129,15,15,0,0,1-.113,3.186c-.056.479-.141.959-.226,1.41.141-.056.31-.113.479-.169a7,7,0,0,0,.564-1.24A12.383,12.383,0,0,0,493.144,143.727Z" transform="translate(-453.112 -101.851)" fill="#bf1e2e"/>
        <path id="Path_31" data-name="Path 31" d="M420.581,138.067a10.1,10.1,0,0,0-.874-2.847,11.992,11.992,0,0,0-.761-1.3l-.226-.31c-.085-.113-.141-.2-.226-.31a2.466,2.466,0,0,0-.226-.282,1.975,1.975,0,0,1-.226-.282,11.692,11.692,0,0,0-1.071-.987,7.461,7.461,0,0,0-1.1-.733,3.466,3.466,0,0,1-.7-.395,11.463,11.463,0,0,0-5.131-1.128,13.291,13.291,0,0,0-2.96.366,17.939,17.939,0,0,0-2.847.987,25.916,25.916,0,0,0-5.131,3.27c-.789.648-1.579,1.325-2.34,2.03s-1.494,1.438-2.227,2.171c-.677.7-1.353,1.438-2,2.171-.818,2.03-1.466,3.778-2.03,5.131a25.394,25.394,0,0,1,2.368-2.227,27.233,27.233,0,0,1,4.934-3.27,11.521,11.521,0,0,1,1.325-.648c.226-.113.451-.2.677-.31.226-.085.451-.2.677-.282l.7-.254c.113-.056.226-.085.338-.141l.338-.113.7-.226c.226-.085.479-.141.7-.226a25.519,25.519,0,0,1,2.9-.677,12.716,12.716,0,0,1,1.494-.2c.508-.056.987-.085,1.494-.113a15.506,15.506,0,0,1,3.017.2,11.873,11.873,0,0,1,2.9.874,8.887,8.887,0,0,1,4.285,4.172,5.728,5.728,0,0,1,.31.733,7.977,7.977,0,0,0,.789-.2l.169-1.607A13.748,13.748,0,0,0,420.581,138.067Z" transform="translate(-382.381 -97.826)" fill="#bf1e2e"/>
        <path id="Path_32" data-name="Path 32" d="M445.693,78.217a6.086,6.086,0,0,1,1.156-1.1,2.35,2.35,0,0,1,.338-.226,2.1,2.1,0,0,1,.338-.2,4.015,4.015,0,0,1,.7-.338,11.63,11.63,0,0,1,1.269-.479,9.479,9.479,0,0,0,.507-2.143,8.565,8.565,0,0,0-3.524-7.555,8.825,8.825,0,0,0-4.257-1.522c-.367-.028-.761-.056-1.156-.056a7.938,7.938,0,0,0-1.156.056,16.033,16.033,0,0,0-2.284.367,22.382,22.382,0,0,0-2.255.62c-.733.254-1.466.536-2.171.846a20.566,20.566,0,0,0-2.086,1.043c-.677.366-1.353.789-2.03,1.212-.648.423-1.3.874-1.945,1.325s-1.269.959-1.861,1.438c-.028,0-.028.028-.056.028-1.607,2.565-3.1,5.216-4.426,7.809a21.422,21.422,0,0,1,2.2-1.3,20.687,20.687,0,0,1,2.9-1.3,14.252,14.252,0,0,1,3.1-.761l.395-.056a1.861,1.861,0,0,1,.395-.028l.395-.028.395-.028c.536-.028,1.071,0,1.607,0,.141,0,.282.028.395.028.141,0,.282.028.395.028a7.6,7.6,0,0,1,.789.113,13.8,13.8,0,0,1,1.551.366c.056-.056.085-.113.141-.169a5.311,5.311,0,0,1,1.945-1.41,3.342,3.342,0,0,1,1.184-.31,2.635,2.635,0,0,1,.648.056,1.708,1.708,0,0,1,.592.31,1.014,1.014,0,0,1,.31.592,1.256,1.256,0,0,1-.085.648,1.909,1.909,0,0,1-.789.9,4.032,4.032,0,0,1-1.071.479.823.823,0,0,1-.254.056c.113.085.225.141.338.226a12.7,12.7,0,0,1,2.4,2.2,18.015,18.015,0,0,1,1.832,2.594c.141.2.254.423.395.648a11.13,11.13,0,0,0,1.3-.648,6.406,6.406,0,0,1,.085-1.466A6.874,6.874,0,0,1,445.693,78.217Z" transform="translate(-404.138 -51.226)" fill="#bf1e2e"/>
        <path id="Path_33" data-name="Path 33" d="M506.5,137.685a8.56,8.56,0,0,1-1.3-.959,13.778,13.778,0,0,1-1.128-1.1,8.429,8.429,0,0,1-1.692-2.706,5.26,5.26,0,0,1-.2-.62,10.505,10.505,0,0,1-.987.451c.2.423.395.818.564,1.24a13.2,13.2,0,0,1,.9,6.259,10.418,10.418,0,0,1-.846,3.045,11.011,11.011,0,0,1-.536.987,8.221,8.221,0,0,0,5.216-6.6Z" transform="translate(-461.872 -99.84)" fill="#bf1e2e"/>
        <path id="Path_34" data-name="Path 34" d="M415.009,169.134l.056-.282a10.874,10.874,0,0,0-.423-3.383l-.085-.2-.056-.169-.085-.169-.169-.31c-.056-.113-.113-.2-.169-.31a8.189,8.189,0,0,0-1.776-2.143c-.169-.141-.367-.31-.536-.423l-.282-.2a3.075,3.075,0,0,0-.31-.169c-.113-.056-.2-.113-.31-.169l-.31-.169a6.031,6.031,0,0,0-.62-.282,11.041,11.041,0,0,0-2.678-.7,15.628,15.628,0,0,0-2.819-.113,24.024,24.024,0,0,0-2.819.338,23.224,23.224,0,0,0-2.763.677,33.024,33.024,0,0,0-5.328,2.058c-.846.423-1.691.9-2.509,1.381l-.592.395c-.2.141-.395.282-.592.395l-.31.2-.282.2c-.2.141-.395.282-.564.423a27.033,27.033,0,0,0-2.2,1.832c-.507.451-.987.93-1.466,1.41-.395.93-.789,2-1.212,3.214.282-.282.564-.564.874-.846q1.057-1.015,2.2-1.945c.761-.62,1.551-1.212,2.34-1.776a23.115,23.115,0,0,1,2.509-1.551c.423-.254.874-.451,1.3-.7.226-.113.451-.2.677-.31s.451-.2.677-.31l.677-.282c.226-.085.451-.169.7-.254.451-.169.93-.31,1.41-.451a2.618,2.618,0,0,0,.366-.113l.366-.085.367-.085.169-.056c.056,0,.113-.028.169-.028.479-.085.959-.2,1.466-.254.479-.056.987-.113,1.494-.141a15.894,15.894,0,0,1,2.988.085,12.252,12.252,0,0,1,1.466.282,14.077,14.077,0,0,1,1.438.451,9.989,9.989,0,0,1,1.353.648,9,9,0,0,1,1.24.874,7.692,7.692,0,0,1,1.071,1.071,4.984,4.984,0,0,1,.451.62c.141.226.254.451.366.677a3.533,3.533,0,0,1,.254.7,3.614,3.614,0,0,1,.141.761,3.439,3.439,0,0,1,0,.761,3.614,3.614,0,0,1-.141.761,5.328,5.328,0,0,1-.31.7,2.453,2.453,0,0,1-.479.592,5.119,5.119,0,0,1-3.383,1.353c-5.1.141-2.9-3.891-2.368-3.834,0,0-.7,2.763,2.368,2.565a2.093,2.093,0,0,0,1.973-3.158c-.507-1.071-1.72-1.325-2.96-1.269a3.985,3.985,0,0,0-3.862,3.242c-.536,3.214,3.355,3.778,4.849,3.862,2.2.113,6.766-1.1,7.076-6A.151.151,0,0,0,415.009,169.134Z" transform="translate(-377.57 -119.675)" fill="#bf1e2e"/>
        <path id="Path_35" data-name="Path 35" d="M540.139,25.433A14,14,0,0,0,525,17.342a7.055,7.055,0,0,1,.733.2c.479.141.987.282,1.466.451a19.829,19.829,0,0,1,5.385,2.876,16.65,16.65,0,0,1,4.088,4.567,18.912,18.912,0,0,1,2.312,5.695,24.8,24.8,0,0,1,.648,6.118,28.115,28.115,0,0,1-.2,3.073,27.012,27.012,0,0,1-.536,3.017,23.507,23.507,0,0,1-.874,2.96,17.988,17.988,0,0,1-1.269,2.819c-.141.226-.254.451-.395.677a5.313,5.313,0,0,1-.451.648c-.169.226-.338.423-.507.62a2.664,2.664,0,0,1-.282.282l-.254.282a23.052,23.052,0,0,1-2.284,2.086,12.945,12.945,0,0,1-2.706,1.607,9.026,9.026,0,0,1-1.551.479,6.311,6.311,0,0,1-1.635.141h-.028c3.045.818,7.866.677,12.179-5.667C546.539,38.966,540.139,25.433,540.139,25.433Z" transform="translate(-478.962 -17.163)" fill="#bf1e2e"/>
        <path id="Path_36" data-name="Path 36" d="M385.8,177.378c10.093-2.481,9.924,4.736,9.67,4.934a2.059,2.059,0,0,1-.2.395,2.417,2.417,0,0,0,.366-.564,2.585,2.585,0,0,0,.254-.648,2.78,2.78,0,0,0,.085-.677,2.745,2.745,0,0,0-.056-.677,1.415,1.415,0,0,1-.056-.338,1.587,1.587,0,0,0-.113-.338,6.446,6.446,0,0,0-.282-.648,6.733,6.733,0,0,0-.366-.592c-.141-.2-.282-.367-.423-.536a7.73,7.73,0,0,0-2.2-1.72,8.322,8.322,0,0,0-1.269-.564,12.246,12.246,0,0,0-1.353-.395,13.8,13.8,0,0,0-2.791-.31,18.961,18.961,0,0,0-2.819.2c-.479.056-.93.169-1.41.254-.056,0-.113.028-.169.028l-.169.056-.338.085-.338.085-.169.056c-.056.028-.113.028-.169.056a25.411,25.411,0,0,0-5.272,2.2c-.846.451-1.663.959-2.481,1.466-.395.282-.789.536-1.184.818s-.789.564-1.156.846a47.3,47.3,0,0,0-3.834,3.3c-2.847,8.6-5.864,21.623-5.864,21.623h1.973a17.875,17.875,0,0,1,1.861-6.822c1.776-3.355,5.526-5.61,8.4-4.342,2.876,1.3,5.385,6.766-.395,8.4-2,.564-3.5-2.227-1.128-4.088,0,0-.9,3.242,2.171,2.481,2.509-.648,1.579-3.383.648-4-1.438-.93-2.9-.846-4.285.846a4.689,4.689,0,0,0-.536,4.4c.536,1.24,2.9,2.03,4.821,1.184a6.256,6.256,0,0,0,4.144-6.23c.113-3.834-3.355-5.526-6.907-5.018s-6.315,3.637-6.315,3.637S371.821,180.818,385.8,177.378Z" transform="translate(-361.7 -130.287)" fill="#bf1e2e"/>
        <path id="Path_37" data-name="Path 37" d="M473.047,60.2a1.5,1.5,0,0,0-.536,1.015,1.519,1.519,0,0,0,.479,1.269,3.607,3.607,0,0,0,2.96.366,8.394,8.394,0,0,0,4.877-3.75,17.4,17.4,0,0,0,2.819-9.247,15.543,15.543,0,0,0-2.847-9.811,12.727,12.727,0,0,0-6.851-4.934,19.248,19.248,0,0,0-9.3-.254A26.563,26.563,0,0,0,459.6,36.43a46.744,46.744,0,0,0-6.4,6.71c.536-.31,1.043-.62,1.607-.9a26.13,26.13,0,0,1,4.285-1.832c.366-.113.733-.226,1.128-.338a7.647,7.647,0,0,1,1.156-.254,21.229,21.229,0,0,1,2.34-.31,13.679,13.679,0,0,1,2.4.056,9.833,9.833,0,0,1,2.34.592,7.976,7.976,0,0,1,2.143,1.184,8.287,8.287,0,0,1,1.72,1.72,10.446,10.446,0,0,1,1.24,2.086,10.865,10.865,0,0,1,.761,2.284,16.91,16.91,0,0,1,.338,2.4,11.3,11.3,0,0,1-.169,2.4,11.724,11.724,0,0,1-.366,1.663c.141-.028.254-.028.395-.056a5.13,5.13,0,0,1,1.607.056c.254.056.536.141.789.226a3.594,3.594,0,0,1,.7.423,3.459,3.459,0,0,1,.987,1.3,4.02,4.02,0,0,1,.254.761,7.718,7.718,0,0,1,.141.789,3.612,3.612,0,0,1-.282,1.551,5.476,5.476,0,0,1-.789,1.353,5.068,5.068,0,0,1-2.509,1.663h-.028a2.134,2.134,0,0,1-.423.028,1.654,1.654,0,0,1-1.8-1.015l-.085-.423c0-.028-.028-.056-.028-.113,0,.028.028.056.028.085A1.382,1.382,0,0,1,473.047,60.2Z" transform="translate(-427.404 -29.54)" fill="#bf1e2e"/>
        <path id="Path_38" data-name="Path 38" d="M510.839,108.828a8.111,8.111,0,0,0,.507-1.128,4.15,4.15,0,0,0-.62.282c-.226.113-.423.226-.62.338a1.013,1.013,0,0,0-.282.2c-.085.056-.2.141-.282.2a5.45,5.45,0,0,0-.987.987,5.29,5.29,0,0,0-1.1,2.509,5.933,5.933,0,0,0-.056.7,9.169,9.169,0,0,0,.818-.648A11.618,11.618,0,0,0,510.839,108.828Z" transform="translate(-466.324 -82.176)" fill="#bf1e2e"/>
        <path id="Path_39" data-name="Path 39" d="M440.361,63.092c.62-.507,1.269-.987,1.917-1.438s1.325-.874,2.03-1.3c.338-.2.7-.395,1.043-.592.367-.2.7-.366,1.071-.536a21.571,21.571,0,0,1,4.539-1.551,16.947,16.947,0,0,1,2.4-.366,11.9,11.9,0,0,1,2.453.056,9.04,9.04,0,0,1,2.4.592,8.069,8.069,0,0,1,2.143,1.212,9.021,9.021,0,0,1,1.692,1.748,8.646,8.646,0,0,1,1.128,2.143c.141.367.254.761.366,1.156a5.766,5.766,0,0,1,.141.677,12.551,12.551,0,0,0-.282-2.03,10.4,10.4,0,0,0-1.748-3.947,7.792,7.792,0,0,0-1.494-1.551,7.612,7.612,0,0,0-1.861-1.071,11.016,11.016,0,0,0-4.313-.7,17.1,17.1,0,0,0-4.426.733,28.366,28.366,0,0,0-4.229,1.607c-.874.423-1.748.874-2.594,1.353-1.1,1.438-2.143,2.932-3.129,4.454A9.116,9.116,0,0,1,440.361,63.092Z" transform="translate(-417.638 -44.757)" fill="#bf1e2e"/>
      </g>
      <path id="Path_40" data-name="Path 40" d="M341.879,285.66a6.6,6.6,0,0,1,4.539-1.466c3.073,0,4.342.874,4.652,1.466,0,0,2.565-1.861.987-3.834s-6.118-1.776-7.612-1.381-4.144,1.184-4.144,3.242C340.3,285.068,341.879,285.66,341.879,285.66Z" transform="translate(-336.861 -206.035)" fill="#324a58"/>
    </g>
  </g>
</svg>
